<?xml version="1.0" encoding="utf-8"?>
<!-- Generator: Adobe Illustrator 19.2.0, SVG Export Plug-In . SVG Version: 6.00 Build 0)  -->
<svg version="1.1" id="Слой_1" xmlns="http://www.w3.org/2000/svg" xmlns:xlink="http://www.w3.org/1999/xlink" x="0px" y="0px"
	 viewBox="0 0 61.3 46.3" style="enable-background:new 0 0 61.3 46.3;" xml:space="preserve">
<style type="text/css">
	.st0{fill:url(#SVGID_1_);}
</style>
<linearGradient id="SVGID_1_" gradientUnits="userSpaceOnUse" x1="28.7818" y1="21.42" x2="50.2789" y2="42.1795" gradientTransform="matrix(1 0 0 -1 0 45.4433)">
	<stop  offset="0" style="stop-color:#BD9D61"/>
	<stop  offset="0.12" style="stop-color:#FFFCD3"/>
	<stop  offset="0.27" style="stop-color:#BD9D61"/>
	<stop  offset="0.54" style="stop-color:#FFFCD3"/>
	<stop  offset="0.82" style="stop-color:#BD9D61"/>
	<stop  offset="1" style="stop-color:#FFFCD3"/>
</linearGradient>
<path class="st0" d="M30.3,42.6c0.5,0.3,1.1,0.4,1.8,0.5c0.8,0.2,1.3,0.3,1.3,0.1l0,0c1.2,0,2.5-0.8,4.1-1.4c1.7-0.7,18-7,19-7.7
	c1.6-1.1,0.9-7.4,0.8-7.9c-0.3-1-1.8-0.7-1.9,0v4.2c0,0.7-0.4,1.7-1.7,2.1c-20.3,6.8-19.4,9.5-19.4-0.9c0-3.9-0.1-21.8,0.6-23.2
	c1-2,3.8-0.9,5.8-0.4l12.9,3.1c1.6,0.4,1.6,0.5,1.6,2.2c0,0.9,0.1,1.7,0.4,2.1c0.3,0.3,0.9,0.4,1.5-0.2c0.3-0.8,0.3-3,0.2-4.1
	c-0.2-1.6-0.9-1.8-2.3-2.2c-5.4-1.5-17.4-5.7-21.6-5.5l0,0c-1.5,0.1-5,1.3-5.5,1.6c-0.7,0.4-1.2,0.8-1.6,1.4c-0.6,0.6-1,1.4-1.4,2.4
	c-0.4,1-0.8,2-1.1,2.9c-0.2,0.6-0.6,1.7-1.3,3.5c-0.6,1.8-1.1,3.1-1.6,3.9c-0.4,0.8-0.8,1.3-1.2,1.2c-0.5-0.1-1-0.8-1.6-1.9
	s-1.3-2.6-2-4.4c-0.8-1.8-1.3-2.8-1.6-3.2C14,10,13.8,9.6,13.6,9.4c-0.1-0.2-0.3-0.3-0.6-0.5c-0.2-0.1-0.7-0.2-1.3-0.1
	c-0.6,0-1.4,0.2-2.5,0.5c-1.8,0.4-3.3,1-4.5,1.6s-1.9,1.3-1.9,2.2c0,0.4,0.1,0.6,0.4,0.8c0.3,0.2,0.7,0.3,1.2,0.5s0.8,0.4,0.9,0.5
	c0.4,0.7,0.6,1.9,0.6,3.8c0,2.2-0.1,4.2-0.2,5.8c-0.1,1.6-0.3,3.3-0.5,5c-0.1,0.6-0.2,1-0.4,1.2C4.6,30.9,4.3,31,3.9,31
	S3.2,31.1,3,31.2c-0.2,0.1-0.3,0.3-0.3,0.7c0,1.2,1.5,2.2,4.7,3.2c3.6,1.2,5.4,1,5.4-0.6c0-0.6-0.3-1-0.8-1.4s-0.9-0.8-1.2-1.1
	c-0.3-0.4-0.4-1.1-0.4-2.2c0-0.1,0-0.5,0-1.1s0-1.2,0-1.6c0-2.3,0.3-3.5,0.9-3.5c0.3,0,0.5,0.2,0.7,0.5s0.4,0.7,0.6,1.3
	c0.7,1.8,1.4,3.6,2.1,5.5c0.7,2,1.3,3.4,1.6,4.3c0.4,0.9,0.6,1.4,0.8,1.7c0.2,0.2,0.4,0.4,0.6,0.5c0.4,0.1,0.7-0.1,1.1-0.8
	c0.4-0.6,0.8-1.6,1.3-3s0.8-2.2,0.9-2.4c0.4-1,0.7-1.9,1.1-2.8c0.3-0.9,0.7-1.7,1.1-2.3c0.4-0.7,0.7-1,1.1-0.9
	c0.5,0,0.7,1.3,0.7,3.7c0,1.1,0,2.2-0.1,3.4c-0.1,1.2-0.2,1.9-0.2,2.2c-0.1,0.3-0.2,0.6-0.3,0.7c-0.1,0.2-0.4,0.4-0.7,0.7
	s-0.6,0.5-0.7,0.7c-0.1,0.2-0.2,0.5-0.2,0.9c0,1.2,0.6,2.1,1.9,2.9c1.3,0.8,2.8,1.5,4.7,2.1C29.6,42.4,30,42.5,30.3,42.6L30.3,42.6z
	 M45,23.5c-0.2-1-0.4-3.7,0.3-4.2c0.8-0.6,12-0.1,13.4-0.1l0,3.6C56.3,22.9,46.5,24,45,23.5L45,23.5z M37.6,19.8
	c1.1-0.7,3.4-0.7,4.9-1c2.7-0.5-0.9-1.2,5.1-1.1c3.4,0.1,8.4,0.2,11.6,0.7c0.3,1.3,0.4,2.6,0.3,4c0,1.8,0.1,1.5-2.7,1.8l-11.7,1.4
	c-1.5,0.1-0.8-0.1-1.6-0.5c-1.2-0.7-5.5,0.6-6-0.9C37.4,23.8,37.5,20.3,37.6,19.8L37.6,19.8z M53.1,27.6c-0.2,2.8,0.1,2.6-1.7,3.1
	c-0.6,0.2-1.2,0.3-1.8,0.5c-1.6,0.5-9.5,3.5-10.2,2.9c-0.4-0.7-0.4-4,0-4.9c0.5-0.9,2.8-1.1,3.8-1.3c2.6-0.5,6.4-1.2,9.1-1.4
	l0.8-0.1V27.6L53.1,27.6z M38.6,36.3c-1.2-1.4-1.4-3.3-1.3-5.4c0.3-3.4,1.2-3.5,3.3-3.8c3.3-0.5,9.4-1.6,12.5-1.6
	c0.9,1.2,1,3.8,0.7,5.6C52.4,31.8,39.6,36.3,38.6,36.3L38.6,36.3z M54,16.7c-0.8,0.8-3.9,0.3-5.3,0.2c-2-0.1-4-0.1-6-0.1
	c-2.8-0.1-4.3,0.3-4.9-1c-0.5-1.3-0.5-3.8-0.1-5.2c0.6-2,2.2-1.2,4.2-0.9c1.7,0.2,3.4,0.5,5,0.9c1.7,0.3,3.2,0.7,4.9,1.1
	c0.9,0.2,1.9,0.2,2.1,0.9c0.2,0.7,0,2.1-0.2,2.6h-0.6L53,12.8c-3.4-0.4-10.8-2.3-13.6-2.1c-0.4,1-0.4,2.9-0.2,4.1
	c1.3,0.4,9.1,0.8,11.4,1C52.6,16,53.6,15.8,54,16.7L54,16.7z M52.3,20.4c0.4,0,0.8,0.4,0.8,0.8S52.7,22,52.3,22s-0.8-0.4-0.8-0.8
	C51.5,20.7,51.9,20.4,52.3,20.4L52.3,20.4z M46.8,12.8c0.4,0,0.8,0.4,0.8,0.8s-0.4,0.8-0.8,0.8S46,14,46,13.6
	C46,13.2,46.4,12.8,46.8,12.8L46.8,12.8z M46.4,28.9c0.4,0,0.8,0.4,0.8,0.8c0,0.4-0.4,0.8-0.8,0.8s-0.8-0.4-0.8-0.8
	C45.6,29.2,45.9,28.9,46.4,28.9z"/>
</svg>
