<?xml version="1.0" encoding="utf-8"?>
<!-- Generator: Adobe Illustrator 19.2.0, SVG Export Plug-In . SVG Version: 6.00 Build 0)  -->
<svg version="1.1" id="Слой_1" xmlns="http://www.w3.org/2000/svg" xmlns:xlink="http://www.w3.org/1999/xlink" x="0px" y="0px"
	 viewBox="0 0 263.6 54.6" style="enable-background:new 0 0 263.6 54.6;" xml:space="preserve">
<style type="text/css">
	.st0{fill:url(#SVGID_1_);}
	.st1{fill:url(#SVGID_2_);}
	.st2{fill:url(#SVGID_3_);}
</style>
<rect y="-9.2" width="263.6" height="42.6"/>
<path d="M4.3,23.4v10C19,39,33.7,44.6,48.4,50.2c4.3,1.4,6.1,1.4,10-0.3c11.1-4.5,21.2-9,32.4-13.5c7.2-2.9,9-2.8,18.4-3l-4.1-15
	L4.3,23.4z"/>
<linearGradient id="SVGID_1_" gradientUnits="userSpaceOnUse" x1="48.1151" y1="21.42" x2="69.6122" y2="42.1795" gradientTransform="matrix(1 0 0 -1 0 45.4433)">
	<stop  offset="0" style="stop-color:#BD9D61"/>
	<stop  offset="0.12" style="stop-color:#FFFCD3"/>
	<stop  offset="0.27" style="stop-color:#BD9D61"/>
	<stop  offset="0.54" style="stop-color:#FFFCD3"/>
	<stop  offset="0.82" style="stop-color:#BD9D61"/>
	<stop  offset="1" style="stop-color:#FFFCD3"/>
</linearGradient>
<path class="st0" d="M49.6,42.6c0.5,0.3,1.1,0.4,1.8,0.5c0.8,0.2,1.3,0.3,1.3,0.1l0,0c1.2,0,2.5-0.8,4.1-1.4c1.7-0.7,18-7,19-7.7
	c1.6-1.1,0.9-7.4,0.8-7.9c-0.3-1-1.8-0.7-1.9,0v4.2c0,0.7-0.4,1.7-1.7,2.1c-20.3,6.8-19.4,9.5-19.4-0.9c0-3.9-0.1-21.8,0.6-23.2
	c1-2,3.8-0.9,5.8-0.4l12.9,3.1c1.6,0.4,1.6,0.5,1.6,2.2c0,0.9,0.1,1.7,0.4,2.1c0.3,0.3,0.9,0.4,1.5-0.2c0.3-0.8,0.3-3,0.2-4.1
	c-0.2-1.6-0.9-1.8-2.3-2.2c-5.4-1.5-17.4-5.7-21.6-5.5l0,0c-1.5,0.1-5,1.3-5.5,1.6c-0.7,0.4-1.2,0.8-1.6,1.4c-0.6,0.6-1,1.4-1.4,2.4
	c-0.4,1-0.8,2-1.1,2.9c-0.2,0.6-0.6,1.7-1.3,3.5c-0.6,1.8-1.1,3.1-1.6,3.9c-0.4,0.8-0.8,1.3-1.2,1.2c-0.5-0.1-1-0.8-1.6-1.9
	s-1.3-2.6-2-4.4c-0.8-1.8-1.3-2.8-1.6-3.2c-0.5-0.8-0.7-1.2-0.9-1.4c-0.1-0.2-0.3-0.3-0.6-0.5c-0.2-0.1-0.7-0.2-1.3-0.1
	c-0.6,0-1.4,0.2-2.5,0.5c-1.8,0.4-3.3,1-4.5,1.6s-1.9,1.3-1.9,2.2c0,0.4,0.1,0.6,0.4,0.8c0.3,0.2,0.7,0.3,1.2,0.5s0.8,0.4,0.9,0.5
	c0.4,0.7,0.6,1.9,0.6,3.8c0,2.2-0.1,4.2-0.2,5.8c-0.1,1.6-0.3,3.3-0.5,5c-0.1,0.6-0.2,1-0.4,1.2c-0.2,0.2-0.5,0.3-0.9,0.3
	s-0.7,0.1-0.9,0.2c-0.2,0.1-0.3,0.3-0.3,0.7c0,1.2,1.5,2.2,4.7,3.2c3.6,1.2,5.4,1,5.4-0.6c0-0.6-0.3-1-0.8-1.4s-0.9-0.8-1.2-1.1
	c-0.3-0.4-0.4-1.1-0.4-2.2c0-0.1,0-0.5,0-1.1s0-1.2,0-1.6c0-2.3,0.3-3.5,0.9-3.5c0.3,0,0.5,0.2,0.7,0.5s0.4,0.7,0.6,1.3
	c0.7,1.8,1.4,3.6,2.1,5.5c0.7,2,1.3,3.4,1.6,4.3c0.4,0.9,0.6,1.4,0.8,1.7c0.2,0.2,0.4,0.4,0.6,0.5c0.4,0.1,0.7-0.1,1.1-0.8
	c0.4-0.6,0.8-1.6,1.3-3s0.8-2.2,0.9-2.4c0.4-1,0.7-1.9,1.1-2.8c0.3-0.9,0.7-1.7,1.1-2.3c0.4-0.7,0.7-1,1.1-0.9
	c0.5,0,0.7,1.3,0.7,3.7c0,1.1,0,2.2-0.1,3.4c-0.1,1.2-0.2,1.9-0.2,2.2c-0.1,0.3-0.2,0.6-0.3,0.7c-0.1,0.2-0.4,0.4-0.7,0.7
	s-0.6,0.5-0.7,0.7c-0.1,0.2-0.2,0.5-0.2,0.9c0,1.2,0.6,2.1,1.9,2.9c1.3,0.8,2.8,1.5,4.7,2.1C48.9,42.4,49.3,42.5,49.6,42.6
	L49.6,42.6z M64.3,23.5c-0.2-1-0.4-3.7,0.3-4.2c0.8-0.6,12-0.1,13.4-0.1l0,3.6C75.6,22.9,65.8,24,64.3,23.5L64.3,23.5z M56.9,19.8
	c1.1-0.7,3.4-0.7,4.9-1c2.7-0.5-0.9-1.2,5.1-1.1c3.4,0.1,8.4,0.2,11.6,0.7c0.3,1.3,0.4,2.6,0.3,4c0,1.8,0.1,1.5-2.7,1.8l-11.7,1.4
	c-1.5,0.1-0.8-0.1-1.6-0.5c-1.2-0.7-5.5,0.6-6-0.9C56.7,23.8,56.8,20.3,56.9,19.8L56.9,19.8z M72.4,27.6c-0.2,2.8,0.1,2.6-1.7,3.1
	c-0.6,0.2-1.2,0.3-1.8,0.5c-1.6,0.5-9.5,3.5-10.2,2.9c-0.4-0.7-0.4-4,0-4.9c0.5-0.9,2.8-1.1,3.8-1.3c2.6-0.5,6.4-1.2,9.1-1.4
	l0.8-0.1V27.6L72.4,27.6z M57.9,36.3c-1.2-1.4-1.4-3.3-1.3-5.4c0.3-3.4,1.2-3.5,3.3-3.8c3.3-0.5,9.4-1.6,12.5-1.6
	c0.9,1.2,1,3.8,0.7,5.6C71.7,31.8,58.9,36.3,57.9,36.3L57.9,36.3z M73.3,16.7c-0.8,0.8-3.9,0.3-5.3,0.2c-2-0.1-4-0.1-6-0.1
	c-2.8-0.1-4.3,0.3-4.9-1c-0.5-1.3-0.5-3.8-0.1-5.2c0.6-2,2.2-1.2,4.2-0.9c1.7,0.2,3.4,0.5,5,0.9c1.7,0.3,3.2,0.7,4.9,1.1
	c0.9,0.2,1.9,0.2,2.1,0.9c0.2,0.7,0,2.1-0.2,2.6h-0.6l-0.1-2.4c-3.4-0.4-10.8-2.3-13.6-2.1c-0.4,1-0.4,2.9-0.2,4.1
	c1.3,0.4,9.1,0.8,11.4,1C71.9,16,72.9,15.8,73.3,16.7L73.3,16.7z M71.6,20.4c0.4,0,0.8,0.4,0.8,0.8S72,22,71.6,22s-0.8-0.4-0.8-0.8
	C70.8,20.7,71.2,20.4,71.6,20.4L71.6,20.4z M66.1,12.8c0.4,0,0.8,0.4,0.8,0.8s-0.4,0.8-0.8,0.8s-0.8-0.4-0.8-0.8
	C65.3,13.2,65.7,12.8,66.1,12.8L66.1,12.8z M65.7,28.9c0.4,0,0.8,0.4,0.8,0.8c0,0.4-0.4,0.8-0.8,0.8s-0.8-0.4-0.8-0.8
	C64.9,29.2,65.2,28.9,65.7,28.9z"/>
<linearGradient id="SVGID_2_" gradientUnits="userSpaceOnUse" x1="138.4046" y1="1.9728" x2="180.2154" y2="43.7836" gradientTransform="matrix(1 0 0 -1 0 45.4433)">
	<stop  offset="0" style="stop-color:#BD9D61"/>
	<stop  offset="0.12" style="stop-color:#FFFCD3"/>
	<stop  offset="0.27" style="stop-color:#BD9D61"/>
	<stop  offset="0.54" style="stop-color:#FFFCD3"/>
	<stop  offset="0.82" style="stop-color:#BD9D61"/>
	<stop  offset="1" style="stop-color:#FFFCD3"/>
</linearGradient>
<path class="st1" d="M100.6,20.7c-0.1-0.3-0.3-0.6-0.4-0.8c-0.1-0.2-0.3-0.3-0.5-0.3c-0.4,0-0.6,0.8-0.6,2.3c0,0.3,0,0.6,0,1
	c0,0.4,0,0.6,0,0.7c0,0.7,0.1,1.2,0.3,1.4c0.2,0.2,0.4,0.4,0.8,0.5c0.4,0.2,0.5,0.4,0.5,0.8c0,1-1.2,1.4-3.6,1.4
	c-2.1,0-3.1-0.5-3.1-1.4c0-0.3,0.1-0.5,0.2-0.6s0.3-0.2,0.6-0.3c0.3-0.1,0.5-0.2,0.6-0.4c0.2-0.2,0.2-0.5,0.3-1
	c0.1-1.3,0.2-2.6,0.3-3.7c0.1-1.2,0.1-2.6,0.1-4.2c0-1.4-0.1-2.3-0.4-2.8c-0.1-0.1-0.3-0.3-0.6-0.5c-0.3-0.2-0.6-0.4-0.8-0.5
	c-0.2-0.2-0.3-0.4-0.3-0.7c0-0.6,0.4-1.1,1.2-1.3c0.8-0.3,1.8-0.4,3-0.4c0.7,0,1.3,0,1.7,0.1c0.4,0.1,0.7,0.2,0.9,0.3
	c0.2,0.1,0.3,0.3,0.4,0.4s0.3,0.5,0.6,1c0.2,0.3,0.5,1,1,2.1s1,2,1.4,2.6c0.4,0.6,0.7,1,1.1,1.1c0.2,0,0.5-0.2,0.8-0.7
	c0.3-0.4,0.6-1.1,1-2s0.7-1.5,0.8-1.8c0.2-0.5,0.5-0.9,0.8-1.4s0.5-0.8,0.8-1s0.6-0.4,1.1-0.5s1.1-0.2,1.9-0.2
	c2.4,0,3.5,0.5,3.5,1.6c0,0.3,0,0.5-0.1,0.6s-0.3,0.3-0.6,0.6c-0.3,0.3-0.5,0.6-0.6,0.8c-0.1,0.3-0.2,1-0.2,2.1
	c-0.1,1.1-0.1,2-0.1,2.6c0-0.1,0.1,1.7,0.2,5.4c0,0.4,0.1,0.7,0.2,0.9s0.3,0.4,0.6,0.6c0.3,0.2,0.4,0.3,0.5,0.4
	c0.1,0.1,0.2,0.3,0.2,0.5c0,0.7-0.4,1.1-1.3,1.3s-1.9,0.3-3.1,0.3s-2.3-0.1-3.1-0.3c-0.8-0.2-1.3-0.6-1.3-1.2c0-0.2,0-0.4,0.1-0.5
	s0.3-0.3,0.5-0.5s0.4-0.3,0.5-0.4c0.1-0.1,0.2-0.2,0.2-0.4c0-0.1,0.1-0.5,0.1-1.1c0.1-0.6,0.1-1.2,0.1-1.7c0-1.2-0.2-1.8-0.5-1.8
	c-0.2,0-0.5,0.2-0.7,0.5c-0.2,0.4-0.5,0.8-0.7,1.3s-0.5,1-0.7,1.6c-0.1,0.1-0.3,0.6-0.6,1.4c-0.3,0.8-0.6,1.4-0.9,1.8
	c-0.2,0.4-0.5,0.6-0.7,0.6s-0.3-0.1-0.4-0.2c-0.1-0.1-0.3-0.4-0.5-0.8c-0.2-0.5-0.6-1.2-1.1-2.3L100.6,20.7L100.6,20.7z M225.9,10.1
	c0.7,0,1.3,0.1,1.9,0.2c0.5,0.2,1.1,0.4,1.6,0.6c0.6,0.2,0.9,0.4,1.1,0.4c0.2,0,0.4,0,0.6-0.1c0.2-0.1,0.4-0.1,0.5-0.1
	c0.4,0,0.7,0.2,1.1,0.5c0.4,0.3,0.7,0.8,0.9,1.5c0.2,0.6,0.4,1.4,0.4,2.3c0,0.7-0.2,1.3-0.6,1.8c-0.4,0.5-1,0.7-1.7,0.7
	c-0.6,0-0.9-0.1-1.2-0.4c-0.2-0.3-0.6-0.8-1.1-1.6c-0.5-0.8-1.1-1.4-1.6-1.8c-0.6-0.4-1.3-0.6-2.3-0.6c-0.6,0-1.1,0.2-1.5,0.5
	s-0.7,0.7-0.9,1.2s-0.3,1-0.3,1.5c0,0.9,0.1,1.8,0.4,2.6c0.2,0.8,0.6,1.5,1.1,2.2c0.5,0.6,1,1.1,1.7,1.5c0.7,0.3,1.4,0.5,2.3,0.5
	c0.9,0,1.6-0.1,2.1-0.3s1-0.5,1.4-0.8s0.7-0.5,0.8-0.5c0.3,0,0.6,0.2,0.8,0.5s0.3,0.6,0.3,1s-0.1,0.8-0.3,1.4
	c-0.2,0.5-0.5,1-0.9,1.4s-0.7,0.6-1.1,0.6c-0.2,0-0.6,0.1-1.3,0.4c-0.7,0.3-1.3,0.5-1.9,0.7c-0.6,0.2-1.4,0.3-2.2,0.3
	c-1.7,0-3.2-0.4-4.7-1.2c-1.4-0.8-2.6-1.9-3.4-3.3c-0.8-1.4-1.3-2.9-1.3-4.5c0-1.2,0.3-2.4,0.8-3.5s1.3-2,2.2-2.9
	c0.9-0.8,2-1.4,3.1-1.9C223.5,10.3,224.7,10.1,225.9,10.1L225.9,10.1z M126,16.1c0.6,0,1.1,0,1.5-0.1c0.4,0,0.7-0.1,0.9-0.2
	s0.3-0.1,0.4-0.1c0.3,0,0.5,0.1,0.7,0.4c0.2,0.3,0.3,0.6,0.4,1c0.1,0.4,0.1,0.7,0.1,1s-0.1,0.6-0.2,0.8c-0.1,0.2-0.4,0.3-0.6,0.3
	c-0.3,0-0.5-0.1-0.6-0.3c-0.1-0.2-0.3-0.4-0.4-0.6c-0.1-0.2-0.4-0.4-0.7-0.5c-0.3-0.1-0.9-0.2-1.6-0.2c-0.5,0-0.9,0-1.1,0.1
	s-0.4,0.2-0.4,0.4c-0.1,0.2-0.1,0.5-0.1,0.9v0.8c0,0.3,0,0.6,0.1,0.7c0,0.1,0.1,0.2,0.3,0.2c0.1,0,0.4,0,0.7,0
	c0.3,0,0.5-0.1,0.6-0.2c0.1-0.2,0.2-0.4,0.2-0.7c0-0.3,0.1-0.5,0.2-0.7c0.1-0.1,0.3-0.2,0.5-0.2c0.4,0,0.7,0.3,0.8,0.8
	c0.1,0.5,0.2,1.1,0.2,1.7c0,0.3,0,0.7-0.1,1.1c-0.1,0.4-0.2,0.8-0.3,1.1c-0.2,0.3-0.4,0.5-0.7,0.5c-0.2,0-0.4-0.1-0.4-0.2
	c-0.1-0.1-0.1-0.3-0.2-0.6s-0.2-0.5-0.3-0.7c-0.1-0.2-0.4-0.2-0.8-0.2c-0.3,0-0.5,0.1-0.6,0.3c-0.1,0.2-0.1,0.5-0.1,0.8
	c0,0.8,0,1.3,0.1,1.6s0.2,0.5,0.4,0.6c0.2,0.1,0.5,0.1,1,0.1h0.4c0.8,0,1.3-0.1,1.7-0.3c0.4-0.2,0.7-0.5,0.8-0.8
	c0.2-0.3,0.3-0.6,0.5-0.8c0.2-0.3,0.4-0.4,0.7-0.4c0.2,0,0.4,0.1,0.6,0.3c0.1,0.2,0.2,0.5,0.2,0.7c0,0.4-0.1,0.8-0.2,1.3
	c-0.2,0.5-0.4,0.9-0.6,1.3c-0.2,0.4-0.5,0.5-0.7,0.5c0,0-0.2,0-0.7-0.1s-0.9-0.1-1.4-0.1h-6.7c-0.7,0-1.1-0.2-1.1-0.7
	c0-0.2,0.1-0.4,0.4-0.6c0.3-0.1,0.5-0.3,0.6-0.4c0.1-0.1,0.2-0.4,0.2-0.9c0.1-1.5,0.1-2.5,0.1-2.9c0,0,0-0.9-0.1-2.8
	c0-0.5-0.1-0.9-0.2-1.1s-0.3-0.4-0.4-0.5s-0.3-0.2-0.5-0.3c-0.2-0.1-0.2-0.3-0.2-0.5c0-0.6,0.5-0.9,1.4-0.9c0.1,0,0.2,0,0.3,0
	c0.1,0,0.2,0,0.3,0h4.7V16.1z M137.9,18.7v1.1c0,0.4,0,0.6,0.1,0.7c0,0.1,0.2,0.2,0.4,0.2c0.3,0,0.8-0.1,1.4-0.1
	c1.1,0,2,0.2,2.6,0.5c0.3,0.2,0.6,0.4,0.9,0.7c0.3,0.3,0.5,0.6,0.7,1c0.2,0.4,0.3,0.8,0.3,1.2c0,0.6-0.1,1.2-0.4,1.8
	c-0.2,0.5-0.7,1-1.3,1.4s-1.4,0.5-2.4,0.5c-0.4,0-0.9,0-1.6,0c-0.7,0-1.2,0-1.5,0c-0.4,0-0.9,0-1.7,0s-1.3,0-1.7,0
	c-0.3,0-0.5-0.1-0.8-0.2c-0.2-0.2-0.3-0.4-0.3-0.6c0-0.2,0.1-0.4,0.2-0.5c0.2-0.1,0.3-0.2,0.5-0.3s0.4-0.3,0.5-0.6s0.2-0.7,0.2-1.3
	v-4.7c0-0.7-0.1-1.1-0.2-1.3c-0.2-0.2-0.4-0.4-0.7-0.5s-0.4-0.4-0.4-0.6c0-0.3,0.1-0.5,0.3-0.7s0.5-0.2,0.8-0.2c0.4,0,1,0,1.7,0.1
	c0.7,0,1.2,0.1,1.6,0.1c0,0,0.2,0,0.5,0s0.5,0,0.6,0s0.8,0,1.9-0.1c1.2-0.1,1.8-0.1,1.9-0.1c0.2,0,0.4,0.1,0.6,0.4
	c0.2,0.2,0.4,0.6,0.5,0.9c0.1,0.4,0.2,0.7,0.2,1.1c0,0.3-0.1,0.6-0.3,0.8c-0.2,0.2-0.4,0.3-0.7,0.3s-0.6-0.2-1.1-0.6
	c-0.4-0.4-0.7-0.7-1-0.8c-0.3-0.2-0.7-0.3-1.3-0.3s-1,0.1-1.2,0.2C138,18.2,137.9,18.4,137.9,18.7L137.9,18.7z M137.9,24
	c0,0.6,0,1,0.1,1.3s0.2,0.5,0.3,0.5c0.1,0.1,0.3,0.1,0.5,0.1c0.5,0,0.8-0.2,1.1-0.5s0.5-0.7,0.5-1.2s-0.1-1-0.4-1.4
	c-0.3-0.4-0.7-0.6-1.2-0.6c-0.3,0-0.5,0.1-0.6,0.2s-0.2,0.3-0.2,0.4V24H137.9z M153.4,16.1c0.6,0,1.1,0,1.5-0.1
	c0.4,0,0.7-0.1,0.9-0.2s0.3-0.1,0.4-0.1c0.3,0,0.5,0.1,0.7,0.4c0.2,0.3,0.3,0.6,0.4,1c0.1,0.4,0.2,0.7,0.2,1s-0.1,0.6-0.2,0.8
	c-0.1,0.2-0.4,0.3-0.6,0.3c-0.3,0-0.5-0.1-0.6-0.3c-0.1-0.2-0.3-0.4-0.4-0.6c-0.1-0.2-0.4-0.4-0.7-0.5s-0.9-0.2-1.6-0.2
	c-0.5,0-0.9,0-1.1,0.1c-0.2,0.1-0.4,0.2-0.4,0.4c-0.1,0.2-0.1,0.5-0.1,0.9v0.8c0,0.3,0,0.6,0.1,0.7c0,0.1,0.1,0.2,0.3,0.2
	c0.1,0,0.4,0,0.7,0s0.5-0.1,0.6-0.2c0.1-0.2,0.2-0.4,0.2-0.7c0-0.3,0.1-0.5,0.2-0.7c0.1-0.1,0.3-0.2,0.5-0.2c0.4,0,0.7,0.3,0.8,0.8
	s0.2,1.1,0.2,1.7c0,0.3,0,0.7-0.1,1.1c-0.1,0.4-0.2,0.8-0.3,1.1c-0.2,0.3-0.4,0.5-0.7,0.5c-0.2,0-0.4-0.1-0.4-0.2
	c-0.1-0.1-0.1-0.3-0.2-0.6c-0.1-0.3-0.2-0.5-0.3-0.7s-0.4-0.2-0.8-0.2c-0.3,0-0.5,0.1-0.6,0.3c-0.1,0.2-0.1,0.5-0.1,0.8
	c0,0.8,0,1.3,0.1,1.6s0.2,0.5,0.4,0.6s0.5,0.1,1,0.1h0.4c0.8,0,1.3-0.1,1.7-0.3s0.7-0.5,0.8-0.8c0.2-0.3,0.3-0.6,0.5-0.8
	c0.2-0.3,0.4-0.4,0.7-0.4c0.2,0,0.4,0.1,0.6,0.3c0.1,0.2,0.2,0.5,0.2,0.7c0,0.4-0.1,0.8-0.2,1.3c-0.2,0.5-0.4,0.9-0.6,1.3
	c-0.2,0.4-0.5,0.5-0.7,0.5c0,0-0.2,0-0.7-0.1s-0.9-0.1-1.4-0.1H148c-0.7,0-1.1-0.2-1.1-0.7c0-0.2,0.1-0.4,0.4-0.6
	c0.3-0.1,0.5-0.3,0.6-0.4c0.1-0.1,0.2-0.4,0.2-0.9c0.1-1.5,0.2-2.5,0.2-2.9c0,0,0-0.9-0.1-2.8c0-0.5-0.1-0.9-0.2-1.1
	c-0.1-0.2-0.3-0.4-0.4-0.5c-0.1-0.1-0.3-0.2-0.5-0.3c-0.2-0.1-0.2-0.3-0.2-0.5c0-0.6,0.5-0.9,1.4-0.9c0.1,0,0.2,0,0.3,0s0.2,0,0.3,0
	h4.5V16.1z M166.7,22.3c-0.1-0.3-0.3-0.5-0.4-0.6c-0.1-0.2-0.2-0.2-0.4-0.2s-0.3,0.1-0.5,0.4s-0.3,0.5-0.4,0.7c0,0-0.1,0.2-0.3,0.6
	c-0.2,0.4-0.3,0.7-0.4,0.9c-0.1,0.3-0.2,0.6-0.3,0.9c-0.1,0.3-0.2,0.5-0.2,0.7c0,0.1,0,0.2,0.1,0.3s0.2,0.1,0.4,0.2
	c0.2,0.1,0.3,0.1,0.4,0.2c0.1,0.1,0.1,0.2,0.1,0.4c0,0.7-0.8,1-2.4,1c-0.7,0-1.3,0-1.7-0.1s-0.6-0.2-0.7-0.3
	c-0.1-0.1-0.2-0.3-0.2-0.5s0.1-0.4,0.2-0.4c0.1-0.1,0.3-0.2,0.6-0.3s0.5-0.3,0.6-0.4c0.2-0.2,0.5-0.8,1-1.8l1-2.2
	c0.3-0.6,0.5-1.1,0.6-1.4s0.3-0.7,0.4-1.2c0.1-0.4,0.2-0.8,0.2-1.2c0-0.6,0.2-1.1,0.5-1.4c0.3-0.4,0.8-0.5,1.5-0.5
	c0.6,0,1.2,0.2,1.6,0.7c0.5,0.5,0.9,1.1,1.3,1.8c0.1,0.2,0.4,0.7,0.8,1.6c0.4,0.9,0.9,1.9,1.4,2.9s0.8,1.8,1,2.3
	c0.1,0.3,0.3,0.5,0.4,0.6c0.1,0.1,0.3,0.2,0.5,0.2c0.2,0.1,0.3,0.1,0.4,0.2c0.1,0.1,0.1,0.2,0.1,0.4c0,0.3-0.2,0.6-0.5,0.8
	s-0.7,0.3-1.2,0.3c-0.4,0-0.9,0.1-1.5,0.1c-1,0-1.7,0-2.2-0.1c-0.5,0-0.9-0.1-1.2-0.3s-0.4-0.4-0.4-0.7c0-0.2,0-0.3,0.1-0.4
	c0.1-0.1,0.2-0.2,0.4-0.2c0.2-0.1,0.3-0.1,0.4-0.2c0.1-0.1,0.1-0.1,0.1-0.3c0-0.1-0.2-0.7-0.6-1.7C167,23,166.8,22.5,166.7,22.3
	L166.7,22.3z M177.3,18.9c0-0.3-0.1-0.5-0.2-0.7c-0.1-0.1-0.3-0.3-0.5-0.4s-0.4-0.2-0.4-0.3c-0.1-0.1-0.1-0.2-0.1-0.4
	c0-0.7,1-1.1,3.1-1.1c0.7,0,1.4,0.1,2.1,0.2c0.7,0.1,1,0.4,1,0.9c0,0.2-0.1,0.4-0.4,0.6c-0.3,0.1-0.5,0.3-0.6,0.5s-0.2,0.5-0.2,1.1
	v0.9c0,0.2,0.1,0.3,0.3,0.3c0.1,0,0.4,0,0.7,0s0.6,0,0.8,0c0.6,0,1.1,0.1,1.7,0.2c0.5,0.2,1,0.4,1.4,0.7c0.4,0.3,0.7,0.7,1,1.2
	c0.2,0.5,0.3,1,0.3,1.6c0,0.8-0.2,1.4-0.6,2c-0.4,0.5-0.9,0.9-1.6,1.2c-0.7,0.3-1.4,0.4-2.2,0.4c0,0-0.4,0-1.5-0.1
	c-1-0.1-2-0.1-3-0.1c-0.1,0-0.3,0-0.6,0s-0.5,0-0.6,0c-0.3,0-0.6-0.1-0.9-0.2c-0.2-0.1-0.4-0.3-0.4-0.6c0-0.2,0.1-0.4,0.2-0.5
	c0.1-0.1,0.3-0.2,0.6-0.3s0.5-0.2,0.6-0.3s0.2-0.3,0.2-0.6v-6.2H177.3z M183.3,24.2c0-0.5-0.1-1-0.4-1.3c-0.2-0.3-0.6-0.5-1.1-0.5
	c-0.3,0-0.5,0.1-0.6,0.2s-0.1,0.3-0.1,0.6v2.4c0,0.2,0,0.3,0.1,0.4c0.1,0.1,0.2,0.1,0.5,0.1c0.4,0,0.7-0.1,0.9-0.2
	c0.2-0.2,0.4-0.4,0.5-0.6C183.2,24.8,183.3,24.5,183.3,24.2L183.3,24.2z M195.9,16.1c0.6,0,1.1,0,1.5-0.1c0.4,0,0.7-0.1,0.9-0.2
	s0.3-0.1,0.4-0.1c0.3,0,0.5,0.1,0.7,0.4c0.2,0.3,0.3,0.6,0.4,1c0.1,0.4,0.2,0.7,0.2,1s-0.1,0.6-0.2,0.8c-0.1,0.2-0.4,0.3-0.6,0.3
	c-0.3,0-0.5-0.1-0.6-0.3c-0.1-0.2-0.3-0.4-0.4-0.6c-0.1-0.2-0.4-0.4-0.7-0.5s-0.9-0.2-1.6-0.2c-0.5,0-0.9,0-1.1,0.1
	c-0.2,0.1-0.4,0.2-0.4,0.4c-0.1,0.2-0.1,0.5-0.1,0.9v0.8c0,0.3,0,0.6,0.1,0.7c0,0.1,0.1,0.2,0.3,0.2c0.1,0,0.4,0,0.7,0
	s0.5-0.1,0.6-0.2c0.1-0.2,0.2-0.4,0.2-0.7c0-0.3,0.1-0.5,0.2-0.7c0.1-0.1,0.3-0.2,0.5-0.2c0.4,0,0.7,0.3,0.8,0.8s0.2,1.1,0.2,1.7
	c0,0.3,0,0.7-0.1,1.1c-0.1,0.4-0.2,0.8-0.3,1.1c-0.2,0.3-0.4,0.5-0.7,0.5c-0.2,0-0.4-0.1-0.4-0.2c-0.1-0.1-0.1-0.3-0.2-0.6
	c-0.1-0.3-0.2-0.5-0.3-0.7s-0.4-0.2-0.8-0.2c-0.3,0-0.5,0.1-0.6,0.3c-0.1,0.2-0.1,0.5-0.1,0.8c0,0.8,0,1.3,0.1,1.6s0.2,0.5,0.4,0.6
	s0.5,0.1,1,0.1h0.4c0.8,0,1.3-0.1,1.7-0.3s0.7-0.5,0.8-0.8c0.2-0.3,0.3-0.6,0.5-0.8c0.2-0.3,0.4-0.4,0.7-0.4c0.2,0,0.4,0.1,0.6,0.3
	c0.1,0.2,0.2,0.5,0.2,0.7c0,0.4-0.1,0.8-0.2,1.3c-0.2,0.5-0.4,0.9-0.6,1.3c-0.2,0.4-0.5,0.5-0.7,0.5c0,0-0.2,0-0.7-0.1
	s-0.9-0.1-1.4-0.1h-6.7c-0.7,0-1.1-0.2-1.1-0.7c0-0.2,0.1-0.4,0.4-0.6c0.3-0.1,0.5-0.3,0.6-0.4c0.1-0.1,0.2-0.4,0.2-0.9
	c0.1-1.5,0.1-2.5,0.1-2.9c0,0,0-0.9-0.1-2.8c0-0.5-0.1-0.9-0.2-1.1c-0.1-0.2-0.3-0.4-0.4-0.5c-0.1-0.1-0.3-0.2-0.5-0.3
	c-0.2-0.1-0.2-0.3-0.2-0.5c0-0.6,0.5-0.9,1.4-0.9c0.1,0,0.2,0,0.3,0s0.2,0,0.3,0h4.6V16.1z M204.1,18.6c0-0.3-0.1-0.5-0.2-0.6
	c-0.1-0.1-0.3-0.2-0.6-0.3c-0.3-0.1-0.4-0.2-0.6-0.3c-0.1-0.1-0.2-0.2-0.2-0.5s0.1-0.5,0.4-0.6c0.2-0.1,0.5-0.2,0.9-0.2
	c0.1,0,0.3,0,0.6,0s0.5,0,0.6,0c0.7,0,1.3,0,2-0.1c0.6,0,1.2-0.1,1.7-0.1s0.8-0.1,0.8-0.1c0.6,0,1.1,0.1,1.6,0.2
	c0.5,0.2,1,0.4,1.4,0.7c0.4,0.3,0.7,0.7,1,1.1c0.2,0.5,0.4,1,0.4,1.6s-0.1,1.1-0.3,1.6s-0.5,0.9-1,1.2c-0.4,0.3-0.9,0.6-1.4,0.7
	c-0.5,0.2-1.1,0.2-1.6,0.2c-0.2,0-0.4,0-0.7,0s-0.6,0-0.7,0c-0.2,0-0.3,0.1-0.3,0.3v0.9c0,0.6,0.1,1,0.2,1.1
	c0.1,0.2,0.3,0.3,0.6,0.5c0.3,0.1,0.4,0.3,0.4,0.6c0,0.5-0.3,0.8-1,0.9c-0.7,0.1-1.4,0.2-2.1,0.2c-2.1,0-3.1-0.4-3.1-1.1
	c0-0.2,0-0.3,0.1-0.4c0.1-0.1,0.2-0.2,0.4-0.3s0.4-0.2,0.5-0.4c0.1-0.1,0.2-0.4,0.2-0.7L204.1,18.6L204.1,18.6z M208.5,17.8
	c-0.3,0-0.5,0-0.5,0.1c-0.1,0.1-0.1,0.2-0.1,0.4v2.5c0,0.2,0,0.3,0.1,0.4c0,0.1,0.1,0.2,0.2,0.2c0.1,0,0.3,0.1,0.5,0.1
	c0.5,0,0.9-0.2,1.1-0.5c0.2-0.3,0.4-0.8,0.4-1.3c0-0.3-0.1-0.7-0.2-0.9c-0.1-0.3-0.3-0.5-0.5-0.7C209.1,17.9,208.9,17.8,208.5,17.8z
	"/>
<linearGradient id="SVGID_3_" gradientUnits="userSpaceOnUse" x1="154.6413" y1="26.2414" x2="172.3748" y2="42.7782" gradientTransform="matrix(1 0 0 -1 0 45.4433)">
	<stop  offset="0" style="stop-color:#BD9D61"/>
	<stop  offset="0.12" style="stop-color:#FFFCD3"/>
	<stop  offset="0.27" style="stop-color:#BD9D61"/>
	<stop  offset="0.54" style="stop-color:#FFFCD3"/>
	<stop  offset="0.82" style="stop-color:#BD9D61"/>
	<stop  offset="1" style="stop-color:#FFFCD3"/>
</linearGradient>
<path class="st2" d="M124.7,6.8c0.1-0.3-0.1-0.5-0.4-0.5c-0.4,0-0.7,0.2-1,0.4c-0.2,0.1-0.1,0.4,0,0.5c0.1-0.1,0.1-0.1,0.2-0.1
	s0.1,0.1,0.1,0.2l-0.7,3.2c0.1,0.1,0.3,0.1,0.4,0.1c0.3,0,0.7-0.1,0.7-0.5l0.3-1.4h0.2c0.1,0.6,0.4,2,1.2,2c0.4,0,1-0.5,1.3-0.8
	c0.1-0.1,0.1-0.1,0.1-0.2S127,9.5,127,9.5c-0.2,0.2-0.4,0.3-0.6,0.3c-0.6,0-0.9-1-1-1.4c0.5-0.3,1.2-1.1,1.2-1.6
	c0-0.2-0.2-0.4-0.5-0.4c-0.1,0-0.3,0-0.4,0.1c-0.2,0.9-0.8,1.6-1.2,1.8h-0.1L124.7,6.8L124.7,6.8z M127.5,9l0.4-1.7
	c0-0.1,0-0.2-0.1-0.2c0,0-0.1,0-0.2,0.1c-0.1-0.1-0.2-0.3,0-0.5c0.3-0.2,0.6-0.4,1-0.4c0.3,0,0.5,0.1,0.4,0.5l-0.5,2.4
	c-0.1,0.3,0,0.5,0.3,0.5s0.5-0.1,0.7-0.3l0.6-2.5c0.1-0.4,0.4-0.5,0.7-0.5c0.2,0,0.3,0,0.4,0.1l-0.7,3.3c0,0.1-0.1,0.2-0.1,0.3
	c0.5-0.2,0.9-0.5,1.3-0.7c0.1,0.1,0.2,0.3,0,0.4s-0.8,0.5-1.4,0.8c-0.4,1.5-1.1,3.2-2.6,3.2c-0.5,0-1.1-0.3-1.1-1
	c0-1.1,1.2-1.6,2.7-2.2c0.1-0.2,0.1-0.4,0.2-0.6c-0.3,0.4-0.7,0.7-1.2,0.7C127.3,10.6,127.3,9.8,127.5,9L127.5,9z M127.6,13
	c0.6,0,1-0.6,1.4-1.9c-1,0.5-1.8,0.9-1.8,1.5C127.3,12.9,127.5,13,127.6,13L127.6,13z M134.9,10.6c0.5,0,1.1-0.4,1.5-0.8
	c0.1-0.1,0.1-0.1,0.1-0.2s-0.1-0.2-0.1-0.2c-0.2,0.2-0.6,0.4-0.9,0.4c-0.4,0-0.5-0.4-0.6-0.8l-0.1-0.6c0.9-0.7,1.3-1.2,1.4-1.8
	c0.1-0.8-0.3-0.9-0.7-0.9c-0.3,0-0.6,0.2-0.6,0.6c0.4,0,0.5,0.2,0.5,0.4c0,0.3-0.4,0.8-0.7,1.2l-0.1-0.6c-0.1-0.7-0.3-1.1-0.9-1.1
	c-0.4,0-0.8,0.3-0.9,0.4c-0.2,0.1-0.1,0.3,0,0.5c0.5-0.4,0.8-0.3,0.9,0l0.2,1.4c-0.6,0.9-0.9,1.1-1.3,1.3c0-0.2,0-0.4,0.1-0.7
	C132.6,9,132.4,9,132.3,9c-0.3,0-0.6,0.1-0.6,0.5c0,0.6,0.3,0.9,0.6,0.9c0.5,0,1.1-0.7,1.5-1.3C134,10.4,134.4,10.6,134.9,10.6
	L134.9,10.6z M139.8,10.6c0.6,0,1.1-0.4,1.5-0.8c0.1-0.1,0.1-0.1,0.1-0.2s-0.1-0.2-0.1-0.2c-0.2,0.2-0.6,0.4-0.9,0.4
	c-0.2,0-0.4-0.1-0.3-0.6l0.6-2.8c-0.1-0.1-0.3-0.1-0.4-0.1c-0.3,0-0.6,0.1-0.7,0.5L139.3,8c-0.3,0-0.7,0.1-1.1,0.1l0.3-1.3
	c0.1-0.3-0.1-0.5-0.4-0.5c-0.4,0-0.7,0.2-1,0.4c-0.2,0.1-0.1,0.4,0,0.5c0.1-0.1,0.1-0.1,0.2-0.1c0.1,0,0.1,0.1,0.1,0.2l-0.7,3.2
	c0.1,0.1,0.3,0.1,0.4,0.1c0.3,0,0.6-0.1,0.7-0.5l0.3-1.4c0.4,0,0.8-0.1,1.1-0.2L139,9.3C138.7,10.4,139.4,10.6,139.8,10.6
	L139.8,10.6z M141.8,9c-0.1,0.6-0.1,1.6,0.8,1.6c0.5,0,0.9-0.4,1.3-0.9c0,0.7,0.4,0.9,0.8,0.9c0.5,0,1.1-0.4,1.5-0.8
	c0.1-0.1,0.1-0.1,0.1-0.2s-0.1-0.2-0.1-0.2c-0.2,0.2-0.6,0.4-0.9,0.4c-0.2,0-0.4-0.1-0.3-0.6l0.6-2.8c-0.1-0.1-0.3-0.1-0.4-0.1
	c-0.3,0-0.7,0.1-0.7,0.5L144,9.2c-0.2,0.3-0.5,0.4-0.8,0.4s-0.4-0.1-0.3-0.5l0.5-2.4c0.1-0.3-0.1-0.5-0.4-0.5c-0.4,0-0.7,0.2-1,0.4
	c-0.2,0.1-0.1,0.4,0,0.5c0.1-0.1,0.1-0.1,0.2-0.1c0.1,0,0.1,0.1,0.1,0.2L141.8,9L141.8,9z M159.1,9c-0.1,0.6-0.1,1.6,0.8,1.6
	c0.5,0,0.9-0.4,1.3-0.9c0,0.5,0.2,0.9,0.9,0.9c0.5,0,0.9-0.4,1.3-0.9c0,0.7,0.4,0.9,0.8,0.9c0.6,0,1.1-0.4,1.5-0.8
	c0.1-0.1,0.1-0.1,0.1-0.2s-0.1-0.2-0.1-0.2c-0.2,0.2-0.6,0.4-0.9,0.4c-0.2,0-0.4-0.1-0.3-0.6l0.6-2.8c-0.1-0.1-0.3-0.1-0.4-0.1
	c-0.3,0-0.7,0.1-0.7,0.5l-0.5,2.4c-0.2,0.3-0.5,0.4-0.8,0.4s-0.4-0.1-0.3-0.5l0.6-2.7c-0.1-0.1-0.3-0.1-0.4-0.1
	c-0.3,0-0.7,0.1-0.7,0.5l-0.5,2.4c-0.2,0.3-0.5,0.4-0.8,0.4s-0.4-0.1-0.3-0.5l0.5-2.4c0.1-0.3-0.1-0.5-0.4-0.5c-0.4,0-0.7,0.2-1,0.4
	c-0.2,0.1-0.1,0.4,0,0.5c0.1-0.1,0.1-0.1,0.2-0.1c0.1,0,0.1,0.1,0.1,0.2L159.1,9L159.1,9z M167.8,6.8c0.1-0.3-0.1-0.5-0.4-0.5
	c-0.4,0-0.7,0.2-1,0.4c-0.2,0.1-0.1,0.4,0,0.5c0.1-0.1,0.1-0.1,0.2-0.1c0.1,0,0.1,0.1,0.1,0.2l-0.7,3.2c0.1,0.1,0.3,0.1,0.4,0.1
	c0.3,0,0.7-0.1,0.7-0.5l0.3-1.4h0.2c0.1,0.6,0.4,2,1.2,2c0.4,0,1-0.5,1.3-0.8c0.1-0.1,0.1-0.1,0.1-0.2s-0.1-0.2-0.1-0.2
	c-0.2,0.2-0.4,0.3-0.6,0.3c-0.6,0-0.9-1-1-1.4c0.5-0.3,1.2-1.1,1.2-1.6c0-0.2-0.2-0.4-0.5-0.4c-0.1,0-0.3,0-0.4,0.1
	c-0.2,0.9-0.8,1.6-1.2,1.8h-0.1L167.8,6.8L167.8,6.8z M172.7,6.3c-1.2,0-2.2,1.4-2.2,2.9c0,0.5,0.2,1.4,1.1,1.4c0.5,0,1-0.3,1.3-0.8
	c0,0.7,0.4,0.8,0.8,0.8c0.5,0,1.1-0.4,1.5-0.8c0.1-0.1,0.1-0.1,0.1-0.2s-0.1-0.2-0.1-0.2c-0.2,0.2-0.6,0.4-0.9,0.4
	c-0.2,0-0.4-0.1-0.3-0.6l0.6-2.8c-0.1-0.1-0.3-0.1-0.4-0.1c-0.2,0-0.4,0.1-0.6,0.2C173.4,6.4,173.1,6.3,172.7,6.3L172.7,6.3
	L172.7,6.3z M172.9,9.2c-0.2,0.3-0.6,0.5-0.9,0.5c-0.3,0-0.5-0.2-0.5-0.6c0-0.9,0.4-2.2,1.4-2.2c0.1,0,0.3,0,0.4,0.1L172.9,9.2
	L172.9,9.2z M177.7,10.3v-0.2c-0.3,0.3-0.7,0.5-1,0.5c-0.8,0-1-0.9-1-1.4c0-0.9,0.3-1.8,1-2.4c0.4-0.3,0.7-0.5,1.1-0.5
	c0.3,0,0.6,0.2,0.7,0.4l0.1-0.7c0.2-1.1,1-1.7,1.8-1.7c0.5,0,0.7,0.3,0.7,0.5s-0.2,0.4-0.4,0.3c0-0.2-0.1-0.2-0.3-0.2
	c-0.4,0-0.6,0.5-0.7,1.2l-0.1,0.7c0.3-0.3,0.7-0.5,1-0.5c0.8,0,1,0.8,1,1.4c0,0.9-0.3,1.8-1,2.4c-0.4,0.3-0.7,0.5-1.1,0.5
	c-0.4,0-0.6-0.2-0.7-0.4l-0.1,0.3c-0.5,2.3-1.3,3.1-2.4,3.1c-0.5,0-1-0.3-1-0.9c0-0.4,0.3-0.5,0.6-0.5c0.1,0,0.2,0,0.4,0.1
	c-0.1,0.1-0.1,0.3-0.1,0.4c0,0.3,0.1,0.4,0.2,0.4C177.1,13,177.5,11.4,177.7,10.3L177.7,10.3z M180,7.1c-0.2,0-0.3,0-0.6,0.3
	l-0.5,2.2c0.1,0.2,0.1,0.3,0.4,0.3c1,0,1.2-1.5,1.2-2.1C180.5,7.3,180.3,7.1,180,7.1L180,7.1z M177.3,9.8c0.2,0,0.3,0,0.6-0.3
	l0.5-2.2c-0.1-0.2-0.1-0.3-0.3-0.3c-1,0-1.2,1.5-1.2,2.1C176.8,9.6,177,9.8,177.3,9.8L177.3,9.8z M182.5,9c-0.1,0.6-0.1,1.6,0.8,1.6
	c1.5,0,2.1-1.1,2.1-2c0-0.2-0.1-0.4-0.1-0.5c0.3-0.2,0.7-0.5,0.9-0.8l-0.5,2.3c-0.2,0.8,0.4,1,0.9,1s1.2-0.4,1.2-1
	c0-0.1-0.1-0.2-0.3-0.2c-0.1,0.3-0.3,0.4-0.5,0.4s-0.3-0.1-0.2-0.6l0.6-2.8c-0.1-0.1-0.3-0.1-0.4-0.1c-0.3,0-0.5,0.1-0.6,0.2
	c-0.3,0.4-0.9,0.9-1.5,1.2c-0.1-0.1-0.3-0.1-0.5-0.1c-0.5,0-0.7,0.4-0.5,0.8c0.1,0,0.3,0,0.5,0c0.2,1.1-0.4,1.5-0.6,1.5
	c-0.2,0-0.4-0.2-0.3-0.8l0.5-2.3c0.1-0.3-0.1-0.5-0.4-0.5c-0.4,0-0.7,0.2-1,0.4c-0.2,0.1-0.1,0.4,0,0.5c0.1-0.1,0.1-0.1,0.2-0.1
	c0.1,0,0.1,0.1,0.1,0.2L182.5,9L182.5,9z M189.3,8.5c0.4,0,0.7,0.2,1,0.2c0.5,0,0.8-0.3,0.8-0.6c0-0.1,0-0.2-0.1-0.3
	c-0.2,0.1-0.3,0.1-0.5,0.1c-0.3,0-0.6-0.1-1-0.1c-0.5,0-0.8,0.2-0.8,0.5c0,0.1,0,0.2,0.1,0.3C189,8.6,189.1,8.5,189.3,8.5L189.3,8.5
	z M193.8,6.8c0.1-0.3-0.1-0.5-0.4-0.5c-0.4,0-0.7,0.2-1,0.4c-0.2,0.1-0.1,0.4,0,0.5c0.1-0.1,0.1-0.1,0.2-0.1c0.1,0,0.1,0.1,0.1,0.2
	l-0.7,3.2c0.1,0.1,0.3,0.1,0.4,0.1c0.3,0,0.7-0.1,0.7-0.5l0.3-1.4h0.2c0.1,0.6,0.4,2,1.2,2c0.4,0,1-0.5,1.3-0.8
	c0.1-0.1,0.1-0.1,0.1-0.2s-0.1-0.2-0.1-0.2c-0.2,0.2-0.4,0.3-0.6,0.3c-0.6,0-0.9-1-1-1.4c0.5-0.3,1.2-1.1,1.2-1.6
	c0-0.2-0.2-0.4-0.5-0.4c-0.1,0-0.3,0-0.4,0.1c-0.2,0.9-0.8,1.6-1.2,1.8h-0.1L193.8,6.8L193.8,6.8z M196.6,9l0.4-1.7
	c0-0.1,0-0.2-0.1-0.2c0,0-0.1,0-0.2,0.1c-0.1-0.1-0.2-0.3,0-0.5c0.3-0.2,0.6-0.4,1-0.4c0.3,0,0.5,0.1,0.4,0.5l-0.5,2.4
	c-0.1,0.3,0,0.5,0.3,0.5s0.5-0.1,0.7-0.3l0.6-2.5c0.1-0.4,0.4-0.5,0.7-0.5c0.2,0,0.3,0,0.4,0.1l-0.7,3.3c0,0.1-0.1,0.2-0.1,0.3
	c0.5-0.2,0.9-0.5,1.3-0.7c0.1,0.1,0.2,0.3,0,0.4s-0.8,0.5-1.4,0.8c-0.4,1.5-1.1,3.2-2.6,3.2c-0.5,0-1.1-0.3-1.1-1
	c0-1.1,1.2-1.6,2.7-2.2c0.1-0.2,0.1-0.4,0.2-0.6c-0.3,0.4-0.7,0.7-1.2,0.7C196.5,10.6,196.4,9.8,196.6,9L196.6,9z M196.7,13
	c0.6,0,1-0.6,1.4-1.9c-1,0.5-1.8,0.9-1.8,1.5C196.4,12.9,196.6,13,196.7,13L196.7,13z M201.4,7.2c0.1-0.1,0.1-0.1,0.2-0.1
	c0.1,0,0.1,0.1,0.1,0.2l-0.7,3.2c0.1,0.1,0.3,0.1,0.4,0.1c0.3,0,0.7-0.1,0.7-0.5l0.5-2.4c0.2-0.2,0.5-0.4,0.8-0.4
	c0.2,0,0.3,0.1,0.2,0.5l-0.4,1.7c-0.2,1,0.2,1.2,0.7,1.2c0.6,0,1.2-0.4,1.6-0.8c0.1-0.1,0.1-0.1,0.1-0.2s-0.1-0.2-0.1-0.2
	c-0.2,0.2-0.6,0.4-0.9,0.4c-0.2,0-0.3-0.1-0.2-0.3l0.4-1.9c0.2-0.9-0.1-1.2-0.6-1.2s-1.1,0.3-1.4,0.8l0.1-0.4
	c0.1-0.3-0.1-0.5-0.4-0.5c-0.4,0-0.7,0.2-1,0.4C201.2,6.9,201.3,7.2,201.4,7.2L201.4,7.2z M209.2,7.1c0-0.4-0.2-0.8-1-0.8
	c-1.5,0-2.2,1.7-2.2,2.8c0,1,0.7,1.5,1.5,1.5c0.9,0,1.9-0.5,2.5-1.3c0.1-0.1,0-0.3-0.2-0.3c-0.4,0.5-1.2,0.9-1.8,0.9
	c-0.4,0-0.7-0.2-0.8-0.6C208.8,8.4,209.2,7.8,209.2,7.1L209.2,7.1z M208.2,7c0.1,0,0.3,0.1,0.3,0.3c0,0.5-0.6,1.1-1.4,1.6
	C207.1,8.4,207.4,7,208.2,7L208.2,7z M151.1,5.8c0-0.7,0.3-1,0.8-1c0.3,0,0.6,0.2,0.6,0.5c0,0.2-0.1,0.5-0.4,0.6
	c0.1,0.2,0.4,0.3,0.5,0.3c0.5,0,0.7-0.2,0.7-0.7c0-0.7-0.5-1.2-1.4-1.2s-1.6,0.7-1.6,1.5c0,0.5,0.1,0.9,0.4,1.4
	c-0.9,0.3-1.4,1-1.4,1.8s0.6,1.6,1.9,1.6c0.7,0,1.3-0.2,1.9-0.8c0.5,0.4,1,0.6,1.4,0.8c0.3,0.1,0.8-0.2,0.8-1
	c-0.4-0.1-1-0.3-1.6-0.7c0.1-0.3,0.2-0.7,0.2-1.1c0-0.2,0-0.4-0.1-0.6c0.3,0.1,0.7,0.2,1,0.2c0.6,0,0.9-0.6,0.7-0.9
	c-0.6,0.3-1.1,0-1.8,0s-1.1,0.5-0.8,0.9c0.1-0.1,0.2-0.2,0.4-0.2c0,0.1,0,0.2,0,0.4c0,0.4-0.1,0.7-0.2,1
	C152.1,7.8,151.1,6.8,151.1,5.8L151.1,5.8L151.1,5.8z M151.3,9.9c-0.7,0-1-0.5-1-1c0-0.4,0.2-0.9,0.6-1.2c0.4,0.6,0.9,1.2,1.5,1.8
	C152.2,9.7,151.8,9.9,151.3,9.9z"/>
</svg>
